<svg version="1.1" viewBox="0.0 0.0 192.0 288.0" fill="none" stroke="none" stroke-linecap="square" stroke-miterlimit="10" xmlns:xlink="http://www.w3.org/1999/xlink" xmlns="http://www.w3.org/2000/svg"><clipPath id="p.0"><path d="m0 0l192.0 0l0 288.0l-192.0 0l0 -288.0z" clip-rule="nonzero"/></clipPath><g clip-path="url(#p.0)"><path fill="#000000" fill-opacity="0.0" d="m0 0l192.0 0l0 288.0l-192.0 0z" fill-rule="evenodd"/><path fill="#000000" d="m162.73228 203.81102l0 -203.81102l-162.74016 203.81102z" fill-rule="evenodd"/><path fill="#fae9d4" d="m162.73228 225.86089l0 -188.59842l-150.61417 188.59842z" fill-rule="evenodd"/><path fill="#000000" d="m192.0 287.99213l0 -239.2126l-192.37796 239.2126z" fill-rule="evenodd"/><path fill="#000000" d="m0 203.4042l192.0 0l0 22.551178l-192.0 0z" fill-rule="evenodd"/><path fill="#000000" d="m162.73228 0l29.16536 0l0 37.259842l-29.16536 0z" fill-rule="evenodd"/><path fill="#fae9d4" d="m168.5853 203.41733l0 -86.17323l-66.42519 86.17323z" fill-rule="evenodd"/><path fill="#fae9d4" d="m84.20652 288.0l0 -62.14174l-49.511814 62.14174z" fill-rule="evenodd"/><path fill="#fae9d4" d="m83.81628 225.86089l84.7559 0l0 62.14174l-84.7559 0z" fill-rule="evenodd"/><path fill="#fae9d4" d="m192.23885 37.27034l0 -37.259842l-29.16536 37.259842z" fill-rule="evenodd"/><path fill="#fae9d4" d="m192.28789 83.31759l0 -37.259846l-29.16536 37.259846z" fill-rule="evenodd"/></g></svg>